<?xml version="1.0" standalone="no"?>
<!DOCTYPE svg PUBLIC "-//W3C//DTD SVG 20010904//EN"
 "http://www.w3.org/TR/2001/REC-SVG-20010904/DTD/svg10.dtd">
<svg version="1.0" xmlns="http://www.w3.org/2000/svg"
 width="700.000000pt" height="700.000000pt" viewBox="0 0 700.000000 700.000000"
 preserveAspectRatio="xMidYMid meet">
<metadata>
Created by potrace 1.11, written by Peter Selinger 2001-2013
</metadata>
<g transform="translate(0.000000,700.000000) scale(0.100000,-0.100000)"
fill="#000000" stroke="none">
<path d="M3434 6993 c-12 -2 -41 -21 -64 -41 -38 -31 -67 -84 -227 -408 -100
-204 -183 -375 -183 -381 0 -26 -42 -42 -155 -58 -66 -9 -129 -19 -140 -21
-11 -2 -40 -6 -65 -10 -25 -3 -70 -9 -100 -14 -30 -5 -75 -11 -100 -14 -25 -4
-56 -8 -70 -10 -14 -3 -45 -7 -70 -10 -25 -4 -56 -8 -70 -10 -14 -3 -41 -7
-60 -10 -69 -11 -84 -16 -120 -40 -57 -37 -85 -90 -87 -161 -1 -39 4 -73 14
-94 9 -18 69 -84 132 -146 64 -63 207 -203 318 -312 l203 -198 -21 -115 c-11
-63 -22 -126 -24 -140 -2 -14 -15 -92 -30 -175 -14 -82 -28 -163 -31 -180 -3
-16 -14 -79 -24 -140 -27 -153 -17 -206 47 -267 38 -36 93 -58 147 -58 33 0
66 11 133 46 48 26 144 76 213 111 69 36 157 82 195 103 202 108 285 150 298
150 8 0 140 -66 293 -146 535 -281 505 -267 559 -266 103 2 193 82 202 179 3
30 -9 127 -32 258 -32 181 -50 290 -72 420 -2 17 -11 64 -19 105 -8 41 -14 85
-14 98 0 22 164 189 503 513 60 57 120 122 133 145 29 50 36 115 17 169 -17
49 -76 111 -117 125 -27 9 -341 57 -760 116 l-128 19 -199 401 c-209 426 -215
435 -298 463 -33 11 -84 13 -127 4z"/>
<path d="M3418 3735 c-2 -1 -29 -5 -60 -9 -111 -11 -320 -80 -380 -125 -13 -9
-35 -23 -50 -30 -15 -8 -36 -22 -45 -30 -10 -9 -29 -24 -43 -34 -48 -34 -134
-123 -193 -202 -117 -157 -188 -348 -202 -544 -3 -35 -6 -65 -8 -67 -1 -1
-119 114 -261 256 -191 192 -275 269 -324 298 -227 134 -523 118 -724 -40
-272 -214 -331 -574 -141 -873 15 -25 342 -359 725 -742 l698 -698 1 -62 c0
-35 0 -197 1 -360 0 -327 4 -352 60 -410 63 -65 26 -63 1034 -63 1012 0 952
-4 1019 67 20 21 40 53 45 73 6 20 10 190 10 393 l0 358 696 696 c382 383 709
716 725 740 147 213 153 504 16 717 -122 188 -319 296 -547 297 -123 1 -258
-40 -355 -106 -27 -19 -166 -150 -307 -291 l-258 -257 0 49 c0 105 -37 261
-91 380 -163 361 -529 608 -921 619 -64 2 -118 2 -120 0z"/>
</g>
</svg>
